<svg width="83" height="83" viewBox="0 0 83 83" fill="none" xmlns="http://www.w3.org/2000/svg">
<path d="M25.0774 18.0109C25.0774 18.0109 39.5774 17.0109 41.5774 17.5109C43.5773 18.0109 47.0774 19.5109 47.0774 19.5109M25.0774 18.0109C25.0774 18.0109 15.9353 30.091 10.0774 37.5109M25.0774 18.0109L20.0774 14.5109C20.0774 14.5109 19.193 14.0583 18.5774 14.0109C17.2714 13.9105 16.5774 14.5109 15.5774 15.5109C14.5774 16.5109 5.5774 27.5109 4.57736 29.5109C3.57731 31.5109 4.0774 32.5109 4.57736 33.0109C5.07731 33.5109 9.57739 37.0109 10.0774 37.5109M10.0774 37.5109C11.0537 38.6825 12.5774 40.0109 12.5774 40.0109" stroke="#132651" stroke-width="2"/>
<path d="M57.5379 18.0202C53.5774 20.0109 51.0774 19.5109 46.5774 20.0109C42.0774 20.5109 38.7862 23.1953 33.5774 24.5109C31.832 24.9518 29.9359 23.9286 29.0774 25.5109C28.3087 26.9277 29.0147 28.3034 30.0774 29.5153C31.1769 30.7692 32.4353 30.7199 34.0774 31.0109C36.3926 31.4213 39.5774 30.5109 40.0774 30.5109C40.5774 30.5109 43.5774 29.7631 44.0774 30.0109C44.5774 30.2587 45.0774 30.5109 45.0774 30.5109M57.5379 18.0202C63.1966 25.5819 66.6636 30.0951 72.5109 37.512M57.5379 18.0202C59.487 16.6539 62.5289 14.5216 62.5289 14.5216C62.5289 14.5216 63.4117 14.0692 64.0262 14.0218C65.3299 13.9214 66.0226 14.5216 67.0208 15.5212C68.019 16.5208 77.0028 27.5162 78.0011 29.5153C78.9993 31.5145 78.5001 32.5141 78.0011 33.0139C77.502 33.5136 73.01 37.0122 72.5109 37.512M72.5109 37.512C71.5364 38.6831 70.0154 40.0109 70.0154 40.0109L63.0774 44.0109" stroke="#00D69B" stroke-width="2"/>
<rect x="15.799" y="37.4246" width="7.25212" height="10.761" rx="3.62606" transform="rotate(46.5167 15.799 37.4246)" stroke="#00D69B" stroke-width="2"/>
<rect x="22.4311" y="43.8516" width="6.70667" height="10.2003" rx="3.35333" transform="rotate(46.5167 22.4311 43.8516)" stroke="#00D69B" stroke-width="2"/>
<rect x="28.5861" y="49.9651" width="6.31419" height="10.0986" rx="3.1571" transform="rotate(46.5167 28.5861 49.9651)" stroke="#00D69B" stroke-width="2"/>
<rect x="33.5451" y="56.6637" width="5.45793" height="7.81435" rx="2.72897" transform="rotate(46.5167 33.5451 56.6637)" stroke="#00D69B" stroke-width="2"/>
<path d="M35.5774 63.5109C35.5774 63.5109 37.6354 66.3071 39.5774 66.5109C40.9912 66.6593 42.0006 66.439 43.0774 65.5109C44.2038 64.54 44.5774 62.0109 44.5774 62.0109M44.5774 62.0109L41.0774 59.0109M44.5774 62.0109C44.5774 62.0109 47.6652 62.1274 49.0774 61.0109C50.586 59.8182 51.0774 56.5109 51.0774 56.5109M51.0774 56.5109L46.0774 52.5109M51.0774 56.5109C51.0774 56.5109 54.7009 56.9499 56.0774 55.5109C57.3218 54.2101 57.7257 52.1903 57.0774 50.5109M57.0774 50.5109C54.7342 48.5583 51.0774 45.5109 51.0774 45.5109M57.0774 50.5109C58.9426 52.2437 61.9991 52.0086 63.5774 50.0109C64.9089 48.3256 65.0962 46.0297 63.5774 44.5109C61.0774 42.0109 45.0774 30.5109 45.0774 30.5109" stroke="#132651" stroke-width="2"/>
</svg>
