<svg width="30" height="30" viewBox="0 0 30 30" fill="none" xmlns="http://www.w3.org/2000/svg">
<path d="M15 0C6.729 0 0 6.729 0 15C0 23.271 6.729 30 15 30C23.271 30 30 23.271 30 15C30 6.729 23.271 0 15 0ZM15 27C8.3835 27 3 21.6165 3 15C3 8.3835 8.3835 3 15 3C21.6165 3 27 8.3835 27 15C27 21.6165 21.6165 27 15 27Z" fill="#00D69B"/>
<path d="M9.75 15C10.9926 15 12 13.9926 12 12.75C12 11.5074 10.9926 10.5 9.75 10.5C8.50736 10.5 7.5 11.5074 7.5 12.75C7.5 13.9926 8.50736 15 9.75 15Z" fill="#00D69B"/>
<path d="M20.2395 14.979C21.4763 14.979 22.479 13.9763 22.479 12.7395C22.479 11.5027 21.4763 10.5 20.2395 10.5C19.0027 10.5 18 11.5027 18 12.7395C18 13.9763 19.0027 14.979 20.2395 14.979Z" fill="#00D69B"/>
<path d="M15 24C21 24 22.5 18 22.5 18H7.5C7.5 18 9 24 15 24Z" fill="#00D69B"/>
</svg>
