<svg width="13" height="17" viewBox="0 0 13 17" fill="none" xmlns="http://www.w3.org/2000/svg">
<path d="M9.125 6.75C9.125 8.19975 7.94975 9.375 6.5 9.375C5.05025 9.375 3.875 8.19975 3.875 6.75C3.875 5.30025 5.05025 4.125 6.5 4.125C7.94975 4.125 9.125 5.30025 9.125 6.75Z" fill="#00D69B"/>
<path fill-rule="evenodd" clip-rule="evenodd" d="M0.375 6.75C0.375 11.3438 6.5 16.375 6.5 16.375C6.5 16.375 12.625 11.3438 12.625 6.75C12.625 3.36375 9.88625 0.625 6.5 0.625C3.11375 0.625 0.375 3.36375 0.375 6.75ZM2.125 6.75C2.125 4.33025 4.08025 2.375 6.5 2.375C8.91975 2.375 10.875 4.33025 10.875 6.75C10.875 8.37811 9.72377 10.3634 8.21976 12.1629C7.61247 12.8894 7.00158 13.5227 6.5 14.0102C5.99842 13.5227 5.38753 12.8894 4.78024 12.1629C3.27623 10.3634 2.125 8.37811 2.125 6.75Z" fill="#00D69B"/>
</svg>
