<svg width="18" height="18" viewBox="0 0 18 18" fill="none" xmlns="http://www.w3.org/2000/svg">
<path d="M13.4936 9.75638C13.1515 9.41426 12.5985 9.41426 12.2564 9.75638L10.8616 11.1511C10.215 10.9586 9.00836 10.5211 8.24361 9.75638C7.47886 8.99163 7.04136 7.78501 6.84886 7.13838L8.24361 5.74363C8.58574 5.40151 8.58574 4.84851 8.24361 4.50638L4.74361 1.00638C4.40149 0.664255 3.84849 0.664255 3.50636 1.00638L1.13336 3.37938C0.800862 3.71188 0.613612 4.16863 0.620612 4.63501C0.640737 5.88101 0.970612 10.2088 4.38136 13.6195C7.79211 17.0303 12.1199 17.3593 13.3667 17.3803C13.3711 17.3803 13.3869 17.3803 13.3912 17.3803C13.8532 17.3803 14.2899 17.1983 14.6206 16.8675L16.9936 14.4945C17.3357 14.1524 17.3357 13.5994 16.9936 13.2573L13.4936 9.75638ZM13.3825 15.6294C12.2905 15.611 8.55424 15.3179 5.61861 12.3814C2.67336 9.43613 2.38811 5.68676 2.37061 4.61663L4.12499 2.86226L6.38774 5.12501L5.25636 6.25638C5.04724 6.46463 4.95799 6.76563 5.01836 7.05438C5.03936 7.15501 5.55299 9.54113 7.00549 10.9936C8.45799 12.4461 10.8441 12.9598 10.9447 12.9808C11.2361 13.0429 11.5345 12.9528 11.7427 12.7436L12.875 11.6123L15.1377 13.875L13.3825 15.6294Z" fill="#00D69B"/>
</svg>
