<svg width="37" height="29" viewBox="0 0 37 29" fill="none" xmlns="http://www.w3.org/2000/svg">
<path d="M16.7916 11.3402H20.2083V19.335H16.7916V11.3402Z" fill="#E97000"/>
<path d="M18.5 20.9339C17.5565 20.9339 16.7916 21.6498 16.7916 22.5329C16.7916 23.416 17.5565 24.1319 18.5 24.1319C19.4435 24.1319 20.2083 23.416 20.2083 22.5329C20.2083 21.6498 19.4435 20.9339 18.5 20.9339Z" fill="#E97000"/>
<path fill-rule="evenodd" clip-rule="evenodd" d="M2.67131 28.932C1.35532 28.932 0.533514 27.5979 1.19287 26.5319L17.0215 0.94199C17.6795 -0.121773 19.3204 -0.121778 19.9784 0.941985L35.8071 26.5319C36.4664 27.5979 35.6446 28.932 34.3286 28.932H2.67131ZM31.3656 25.7341L18.5 4.93443L5.63432 25.7341H31.3656Z" fill="#E97000"/>
<path d="M16.7916 20.9339H20.2083V24.1319H16.7916V20.9339Z" fill="#E97000"/>
</svg>
